<?xml version="1.0" encoding="UTF-8"?>
<!DOCTYPE svg PUBLIC "-//W3C//DTD SVG 1.1//EN" "http://www.w3.org/Graphics/SVG/1.1/DTD/svg11.dtd">
<!-- Creator: CorelDRAW 2021 (64-Bit) -->
<svg xmlns="http://www.w3.org/2000/svg" xml:space="preserve" width="127.877mm" height="40.9909mm" version="1.1" style="shape-rendering:geometricPrecision; text-rendering:geometricPrecision; image-rendering:optimizeQuality; fill-rule:evenodd; clip-rule:evenodd"
viewBox="0 0 19744.68 6329.17"
 xmlns:xlink="http://www.w3.org/1999/xlink"
 xmlns:xodm="http://www.corel.com/coreldraw/odm/2003">
 <defs>
  <style type="text/css">
   <![CDATA[
    .fil2 {fill:#FEFEFE}
    .fil4 {fill:#E31E24}
    .fil1 {fill:gray}
    .fil0 {fill:#009846;fill-rule:nonzero}
    .fil3 {fill:#646464;fill-rule:nonzero}
   ]]>
  </style>
 </defs>
 <g id="Ebene_x0020_1">
  <metadata id="CorelCorpID_0Corel-Layer"/>
  <g>
   <path class="fil0" d="M13376.53 5341.27l-1003.9 0 0 -2325.71 -1815.39 0 0 2325.71 -1004.55 0 0 -4500.82 -1463.37 0 0 4500.82 -1029 0 0 -4500.82 -1464.03 0 0 -836.59 3956.39 0 1004.55 0 0 2141.66 1815.39 0 0 -2141.66 1756.59 3.46 1582.55 5337.41 -1111.28 0 -292.8 -1054.1 -918.77 0 -12.4 0 0 1050.64zm0 -1870.5l702.49 0 -702.49 -2490.23 0 2490.23zm3364.24 -2630.32l0 4504.28 -1029 0 0 -4504.28 -1247.82 3.46 -247.11 -836.59 3987.94 -3.46 0 836.59 -1464.01 0z"/>
  </g>
  <path class="fil1" d="M17360.54 6329.17c270.75,0 511.71,-232.61 511.71,-503.36l-27.73 -3943.59 1303.7 0c270.75,0 490.23,-219.49 490.23,-490.23 0,-270.75 -219.49,-490.23 -490.23,-490.23l-1826.06 0c-270.75,0 -528.93,219.49 -528.93,490.23l0 4005.17c-3737.66,0 -7475.62,-0.2 -11213.2,-0.23 -73.64,281.94 -195.65,584.71 -418.47,780.14 -71.78,62.97 -151.19,112.7 -235.51,151.55 4080.87,0.06 8283.17,0.39 12434.49,0.56z"/>
  <circle class="fil2" cx="19090.53" cy="1126.35" r="205.74"/>
  <path class="fil3" d="M3104.87 1670.98c0,495.7 -135.66,888.72 -415.84,1166.37 -278.96,276.43 -671.95,409.51 -1166.38,409.51l-408.23 0 0 1886.49c0,78.59 1.27,150.87 6.33,215.53l-1120.74 0c8.88,-64.66 13.94,-139.46 13.94,-223.14l0 -4917.82c0,-64.66 -5.06,-133.13 -13.94,-207.92l1447.83 0c524.88,0 935.35,143.6 1225.97,438.66 290.03,294.46 431.07,707.43 431.07,1232.32zm-1174 -36.78c0,-306.8 -57.36,-507.6 -178.75,-594.59 -106.89,-76.6 -320.76,-112.84 -637.7,-117.9l0 1463.04c306.8,-10.14 525.41,-60.96 645.3,-163.54 117.29,-100.35 171.16,-299.2 171.16,-587zm4515.94 -178.75l-980.02 3885.83c-84.94,341.05 -212.99,589.53 -386.67,742.93 -187.65,163.54 -457.68,244.68 -810.13,244.68l-995.24 0c-114.57,0 -673.08,0 -1316.48,0 -493.95,0 -752.04,-155.99 -752.04,-497.61 0,-318.8 195.68,-497.61 666.64,-497.61 728.8,0 1286.91,0 1401.88,0l906.49 0c192.71,0 289.06,-88.74 289.06,-267.51l-1210.76 -3610.71 1129.62 0c5.06,50.71 25.35,136.93 59.58,261.16l467.81 1759.73 379.08 -1767.33c24.09,-119.18 36.76,-202.86 36.76,-253.56l1114.41 0z"/>
  <path class="fil4" d="M19471.51 1554.37l-41.63 59.17c21.06,7.29 38.59,15.63 47.62,19.53 8.43,3.66 18.9,8.21 39.06,16.01l4.18 1.62c37.21,14.47 57.52,25.54 72.8,33.86 29.71,16.18 44.19,24.06 98.23,26.4 17.97,0.77 33.18,-13.17 33.95,-31.14 0.77,-17.97 -13.17,-33.18 -31.14,-33.95l-6.73 -0.34c11.43,-2.81 22.7,-6.1 34.19,-9.82 17.12,-5.5 26.56,-23.86 21.06,-40.98 -5.5,-17.12 -23.86,-26.56 -40.98,-21.06 -24.49,7.94 -47.57,13.57 -73.43,16.04 -25.29,2.44 -54.12,1.95 -90.65,-2.19 -19.16,-7.44 -27.78,-11.19 -34.76,-14.21 -6.93,-3 -22.64,-15.5 -31.78,-18.95z"/>
 </g>
</svg>
